{"title":"Paramparca S01E78 DVB-T By Ari Gr Subs (Ragismenes Kardies)","uid":13429077,"size":390965345,"categoryP":"video","categoryS":"tv_shows","magnet":"?xt=urn:btih:1c9103f76cbdfe47c57d0276c7c87dd494eb2749&amp;dn=Paramparca+S01E78+DVB-T+By+Ari+Gr+Subs+%28Ragismenes+Kardies%29&amp;tr=udp%3A%2F%2Ftracker.leechers-paradise.org%3A6969&amp;tr=udp%3A%2F%2Fzer0day.ch%3A1337&amp;tr=udp%3A%2F%2Fopen.demonii.com%3A1337&amp;tr=udp%3A%2F%2Ftracker.coppersurfer.tk%3A6969&amp;tr=udp%3A%2F%2Fexodus.desync.com%3A6969","seeders":1,"leechers":0,"uploader":"Aris2015","files":1,"time":1454617756,"description":"Î‘Ï…Ï„ÏŒ Î¤Î¿ Î‘ÏÏ‡ÎµÎ¯Î¿ Î Î¿Ï… ÎšÎ±Ï„ÎµÎ²Î¬ÏƒÎ±Ï„Îµ Î¤ÏŽÏÎ±, Î£Î¯Î³Î¿Ï…ÏÎ± Î˜Î± Î¸Î­Î»Î¿Ï…Î½ ÎÎ± Î¤Î¿ ÎšÎ±Ï„ÎµÎ²Î¬ÏƒÎ¿Ï…Î½ ÎšÎ¹ Î‘Î»Î»Î¿Î¹ Î§ÏÎ®ÏƒÏ„ÎµÏ‚! Î“Î¹Î± ÎÎ± Î“Î¯Î½ÎµÎ¹ Î‘Ï…Ï„ÏŒ...Î”ÎµÎ½ Î ÏÎ­Ï€ÎµÎ¹ ÎÎ± Î£Ï„Î±Î¼Î±Ï„Î¬Î¼Îµ Î‘Ï…Ï„Î¬ Î Î¿Ï… ÎšÎ±Ï„ÎµÎ²Î¬ÏƒÎ±Î¼Îµ ÎœÎ­Ï‡ÏÎ¹ ÎÎ± Î”ÏŽÏƒÎ¿Ï…Î¼Îµ Î Î¯ÏƒÏ‰ Î‘Ï…Ï„Î¬ Î Î¿Ï… Î Î®ÏÎ±Î¼Îµ,Î— ÎšÎ±Î¹ Î Î±ÏÎ±Ï€Î¬Î½Ï‰! ÎœÎ·Î½ ÎžÎµÏ‡Î½Î¬Î¼Îµ ÎŸÏ„Î¹ Î“Î¹Î± ÎÎ± ÎœÏ€Î¿ÏÎ¿ÏÎ¼Îµ ÎÎ± ÎšÎ±Ï„ÎµÎ²Î¬Î¶Î¿Ï…Î¼Îµ ÎœÎµ ÎšÎ±Î»Î­Ï‚ Î¤Î±Ï‡ÏÏ„Î·Ï„ÎµÏ‚ Î ÏÎ­Ï€ÎµÎ¹ ÎŸÎ»Î¿Î¹ ÎÎ± Î’Î¿Î·Î¸Î¬Î¼Îµ Î£Ï„Î¿Î½ Î”Î¹Î±Î¼Î¿Î¹ÏÎ±ÏƒÎ¼ÏŒ Î¤Î¿Î½ Î‘ÏÏ‡ÎµÎ¯Ï‰Î½, Î‘Î»Î»Î¬ ÎšÎ±Î¹ Î“Î¹Î± ÎÎ± ÎœÏ€Î¿ÏÎµÎ¯ Î•Î½Î±Ï‚ uploader ÎÎ± Î‘Î½ÎµÎ²Î¬Î¶ÎµÎ¹ ÎšÎ±Î¹ ÎÎ­Î± Î‘ÏÏ‡ÎµÎ¯Î± Î˜Î­Î»ÎµÎ¹ Ï„Î·Î½ Î’Î¿Î®Î¸ÎµÎ¹Î± \r\nÎŸÎ»Ï‰Î½ ÎœÎ±Ï‚ Î£Ï„Î¿Î½ Î”Î¹Î±Î¼Î¿Î¹ÏÎ±ÏƒÎ¼ÏŒ Î¤Î¿Ï…Ï‚. Î•Ï…Ï‡Î±ÏÎ¹ÏƒÏ„Î¿ÏÎ¼Îµ Î³Î¹Î± Ï„Î·Î½ ÎºÎ±Ï„Î±Î½ÏŒÎ·ÏƒÎ· ÏƒÎ±Ï‚! \r\n\r\nGeneral \r\nComplete name : Paramparca S01E78 DVB-T By Ari.mp4 \r\nFormat : MPEG-4 \r\nFormat profile : Base Media \r\nCodec ID : isom (isom/iso2/avc1/mp41) \r\nFile size : 373 MiB \r\nDuration : 45mn 58s \r\nOverall bit rate mode : Variable \r\nOverall bit rate : 1 134 Kbps \r\nMovie name : Paramparca S01E78.DVB-T.X264 \r\nPerformer : ARI \r\nGenre : DRAMA \r\nEncoded date : UTC 2016-02-03 23:27:32 \r\nTagged date : UTC 2016-02-03 23:27:32 \r\nWriting application : Lavf57.22.100 \r\n\r\nVideo \r\nID : 1 \r\nFormat : AVC \r\nFormat/Info : Advanced Video Codec \r\nFormat profile :    \r\nFormat settings, CABAC : Yes \r\nFormat settings, ReFrames : 16 frames \r\nCodec ID : avc1 \r\nCodec ID/Info : Advanced Video Coding \r\nDuration : 45mn 58s \r\nBit rate mode : Variable \r\nBit rate : 1 000 Kbps \r\nMaximum bit rate : 17.5 Mbps \r\nWidth : 720 pixels \r\nHeight : 576 pixels \r\nDisplay aspect ratio : 16:9 \r\nFrame rate mode : Constant \r\nFrame rate : 25.000 fps \r\nStandard : PAL \r\nColor space : YUV \r\nChroma subsampling : 4:2:0 \r\nBit depth : 8 bits \r\nScan type : Progressive \r\nBits/(Pixel*Frame) : 0.096 \r\nStream size : 329 MiB (88%) \r\nWriting library : x264 core 148 r2665 \r\n\r\n\r\nAudio \r\nID : 2 \r\nFormat : AAC \r\nFormat/Info : Advanced Audio Codec \r\nFormat profile : LC \r\nCodec ID : 40 \r\nDuration : 45mn 58s \r\nDuration_LastFrame : -13ms \r\nBit rate mode : Constant \r\nBit rate : 128 Kbps \r\nChannel(s) : 2 channels \r\nChannel positions : Front: L R \r\nSampling rate : 48.0 KHz \r\nFrame rate : 46.875 fps (1024 spf) \r\nCompression mode : Lossy \r\nStream size : 42.1 MiB (11%) \r\nLanguage : Turkish \r\nDefault : Yes","torrent":{"xt":"urn:btih:1c9103f76cbdfe47c57d0276c7c87dd494eb2749","amp;dn":"Paramparca+S01E78+DVB-T+By+Ari+Gr+Subs+%28Ragismenes+Kardies%29","amp;tr":["udp%3A%2F%2Ftracker.leechers-paradise.org%3A6969","udp%3A%2F%2Fzer0day.ch%3A1337","udp%3A%2F%2Fopen.demonii.com%3A1337","udp%3A%2F%2Ftracker.coppersurfer.tk%3A6969","udp%3A%2F%2Fexodus.desync.com%3A6969"],"infoHash":"1c9103f76cbdfe47c57d0276c7c87dd494eb2749","infoHashBuffer":{"type":"Buffer","data":[28,145,3,247,108,189,254,71,197,125,2,118,199,200,125,212,148,235,39,73]},"announce":[],"urlList":[]}}